<svg width="24" height="24" viewBox="0 0 24 24" fill="none" xmlns="http://www.w3.org/2000/svg">
<mask id="mask0_1_704" style="mask-type:alpha" maskUnits="userSpaceOnUse" x="0" y="0" width="24" height="24">
<path fill-rule="evenodd" clip-rule="evenodd" d="M12 8.5005C11.034 8.5005 10.2495 7.7175 10.2495 6.75C10.2495 5.784 11.034 5.001 12 5.001C12.966 5.001 13.7505 5.784 13.7505 6.75C13.7505 7.7175 12.966 8.5005 12 8.5005ZM13.5 18C13.5 18.8295 12.828 19.5 12 19.5C11.172 19.5 10.5 18.8295 10.5 18V12C10.5 11.172 11.172 10.5 12 10.5C12.828 10.5 13.5 11.172 13.5 12V18ZM12 1.5C6.201 1.5 1.5 6.201 1.5 12C1.5 17.799 6.201 22.5 12 22.5C17.799 22.5 22.5 17.799 22.5 12C22.5 6.201 17.799 1.5 12 1.5Z" fill="#333333"/>
</mask>
<g mask="url(#mask0_1_704)">
<rect width="24" height="24" fill="#FF7E21"/>
</g>
</svg>
