<svg width="24" height="24" viewBox="0 0 24 24" fill="none" xmlns="http://www.w3.org/2000/svg">
  <path fill-rule="evenodd" clip-rule="evenodd" d="M9.72 3L9.6525 3.141C9.2925 3.8925 9.678 4.5 10.5135 4.5H13.4865C14.3355 4.5 14.697 3.9075 14.3235 3.1755L14.2335 3H16.5V4.5C16.5 4.89524 16.344 5.27451 16.066 5.55539C15.7879 5.83627 15.4102 5.99605 15.015 6H8.985C8.78889 5.99941 8.59482 5.9601 8.41394 5.88433C8.23306 5.80855 8.06892 5.6978 7.93095 5.55844C7.79297 5.41907 7.68388 5.25383 7.60993 5.07219C7.53597 4.89056 7.49862 4.69611 7.5 4.5V3H9.72L9.7875 2.859C10.1475 2.109 11.112 1.5 11.9535 1.5C12.7905 1.5 13.7775 2.1075 14.1435 2.8245L14.235 3H18.7575C19.0518 2.99901 19.3433 3.05614 19.6154 3.16811C19.8876 3.28009 20.1349 3.44469 20.3433 3.65249C20.5516 3.86028 20.7169 4.10718 20.8296 4.37901C20.9423 4.65083 21.0002 4.94224 21 5.2365V20.265C20.996 20.8581 20.7581 21.4256 20.3378 21.8442C19.9176 22.2627 19.3491 22.4984 18.756 22.5H5.244C4.94961 22.5012 4.65789 22.4442 4.38559 22.3323C4.11329 22.2204 3.86578 22.0559 3.65726 21.848C3.44875 21.6402 3.28335 21.3933 3.17056 21.1213C3.05776 20.8494 2.9998 20.5579 3 20.2635V5.235C3.00395 4.6419 3.24193 4.07436 3.66216 3.65581C4.08239 3.23726 4.65089 3.00157 5.244 3H9.72ZM18 18V17.2425C18.0002 17.1443 17.9809 17.047 17.9432 16.9564C17.9055 16.8657 17.8501 16.7834 17.7803 16.7144C17.7105 16.6453 17.6277 16.5907 17.5367 16.5539C17.4456 16.5171 17.3482 16.4988 17.25 16.5C16.848 16.5 16.5 16.833 16.5 17.2425V18H15.7425C15.6443 17.9998 15.547 18.0191 15.4564 18.0568C15.3657 18.0945 15.2834 18.1499 15.2144 18.2197C15.1453 18.2895 15.0907 18.3723 15.0539 18.4633C15.0171 18.5544 14.9988 18.6518 15 18.75C15 19.152 15.333 19.5 15.7425 19.5H16.5V20.2575C16.5 20.6775 16.836 21 17.25 21C17.652 21 18 20.667 18 20.2575V19.5H18.7575C19.1775 19.5 19.5 19.164 19.5 18.75C19.5 18.348 19.167 18 18.7575 18H18ZM6 9.75C6 10.152 6.33 10.5 6.7365 10.5H14.2635C14.4624 10.5 14.6532 10.421 14.7938 10.2803C14.9345 10.1397 15.0135 9.94891 15.0135 9.75C15.0135 9.55109 14.9345 9.36032 14.7938 9.21967C14.6532 9.07902 14.4624 9 14.2635 9H6.7365C6.53994 9.00354 6.35262 9.08412 6.21488 9.22439C6.07713 9.36466 5.99997 9.5534 6 9.75ZM6 12.75C6 13.152 6.336 13.5 6.75 13.5H17.25C17.655 13.5 18 13.164 18 12.75C18 12.348 17.664 12 17.25 12H6.75C6.345 12 6 12.336 6 12.75ZM6 15.75C6 16.152 6.33 16.5 6.7365 16.5H14.2635C14.4624 16.5 14.6532 16.421 14.7938 16.2803C14.9345 16.1397 15.0135 15.9489 15.0135 15.75C15.0135 15.5511 14.9345 15.3603 14.7938 15.2197C14.6532 15.079 14.4624 15 14.2635 15H6.7365C6.53994 15.0035 6.35262 15.0841 6.21488 15.2244C6.07713 15.3647 5.99997 15.5534 6 15.75ZM6 18.75C6 19.152 6.333 19.5 6.7425 19.5H9.7575C10.1775 19.5 10.5 19.164 10.5 18.75C10.5 18.348 10.167 18 9.7575 18H6.7425C6.6443 17.9998 6.54704 18.0191 6.45638 18.0568C6.36571 18.0945 6.28344 18.1499 6.21435 18.2197C6.14527 18.2895 6.09074 18.3723 6.05394 18.4633C6.01714 18.5544 5.99881 18.6518 6 18.75Z" fill="#FF7E21" />
</svg>