<svg width="46" height="44" viewBox="0 0 46 44" fill="none" xmlns="http://www.w3.org/2000/svg">
<path d="M45.1518 18.9026L40.9228 15.5808L42.9012 10.5484C42.9274 10.4818 42.9382 10.4102 42.9327 10.3388C42.9271 10.2675 42.9055 10.1984 42.8693 10.1365C42.8331 10.0747 42.7834 10.0217 42.7237 9.98165C42.6641 9.94157 42.5962 9.91538 42.525 9.90504L37.1916 9.12979L36.3732 3.78845C36.3624 3.71775 36.3356 3.65039 36.2949 3.59139C36.2542 3.5324 36.2007 3.48328 36.1383 3.44771C36.0759 3.41214 36.0062 3.39102 35.9344 3.38594C35.8626 3.38086 35.7906 3.39194 35.7237 3.41836L30.715 5.39743L27.3192 1.17844C27.2744 1.12277 27.2175 1.07783 27.1529 1.04694C27.0883 1.01605 27.0175 1.00001 26.9457 1H26.9443C26.8723 1.00021 26.8014 1.01657 26.7366 1.04784C26.6719 1.07912 26.6151 1.1245 26.5705 1.18062L23.2283 5.38365L18.165 3.41732C18.0979 3.39129 18.0259 3.38063 17.9541 3.38613C17.8824 3.39163 17.8128 3.41315 17.7506 3.44909C17.6884 3.48503 17.6351 3.53446 17.5948 3.59369C17.5545 3.65293 17.5281 3.72044 17.5177 3.79121L16.7377 9.09205L11.3637 9.90542C11.2925 9.91619 11.2247 9.94277 11.1654 9.98319C11.106 10.0236 11.0566 10.0768 11.0208 10.1389C10.985 10.2009 10.9637 10.2702 10.9586 10.3415C10.9535 10.4129 10.9646 10.4844 10.9912 10.5509L12.9823 15.5292L8.73742 18.9042C8.68125 18.9489 8.63595 19.0056 8.60489 19.0701C8.57382 19.1346 8.5578 19.2052 8.558 19.2767C8.5582 19.3483 8.57463 19.4188 8.60605 19.4831C8.63748 19.5474 8.6831 19.6039 8.73952 19.6483L11.5044 21.8201L10.7476 23.2461C10.568 23.5845 10.3392 23.8208 10.0057 24.0122L3.52349 27.732C2.51325 28.3118 1.78947 29.2517 1.48559 30.3787C1.18172 31.5057 1.33562 32.6794 1.91888 33.6835C2.50215 34.6876 3.44793 35.4069 4.58194 35.709C4.95649 35.8091 5.34263 35.86 5.7305 35.8604C6.33137 35.8604 6.92429 35.7348 7.47887 35.4919L11.0587 41.6545C11.5598 42.5172 12.472 43 13.4089 43C13.868 43 14.3332 42.884 14.7585 42.6399C16.0519 41.8976 16.4967 40.2481 15.7499 38.9625L12.1841 32.824L14.3893 31.5586C14.7227 31.3673 15.0421 31.2888 15.4279 31.3031L16.997 31.3627L17.5178 34.7624C17.5286 34.8331 17.5554 34.9005 17.596 34.9595C17.6367 35.0185 17.6903 35.0676 17.7527 35.1032C17.8151 35.1388 17.8848 35.1599 17.9566 35.165C18.0284 35.1701 18.1004 35.159 18.1673 35.1326L23.1761 33.1535L26.5719 37.3725C26.6167 37.4282 26.6736 37.4731 26.7382 37.504C26.8028 37.5349 26.8736 37.5509 26.9454 37.551H26.9468C27.0188 37.5507 27.0897 37.5344 27.1545 37.5031C27.2192 37.4718 27.276 37.4265 27.3206 37.3703L30.6627 33.1673L35.726 35.1336C35.793 35.1597 35.8651 35.1703 35.9369 35.1648C36.0086 35.1593 36.0782 35.1378 36.1404 35.1019C36.2026 35.0659 36.2559 35.0165 36.2962 34.9573C36.3365 34.898 36.3629 34.8305 36.3733 34.7597L37.1533 29.4589L42.5274 28.6455C42.5986 28.6348 42.6664 28.6082 42.7257 28.5678C42.7851 28.5273 42.8345 28.4741 42.8703 28.4121C42.9061 28.35 42.9274 28.2808 42.9325 28.2094C42.9376 28.1381 42.9265 28.0665 42.8999 28L40.9088 23.0218L45.1537 19.6468C45.2099 19.6021 45.2552 19.5454 45.2863 19.4809C45.3174 19.4164 45.3334 19.3457 45.3333 19.2742C45.3331 19.2027 45.3167 19.1321 45.2852 19.0678C45.2538 19.0034 45.2082 18.947 45.1518 18.9026ZM14.9219 39.4378C15.4049 40.2693 15.1172 41.3365 14.2806 41.8165C13.4439 42.2966 12.3704 42.0107 11.8873 41.1791L8.32153 35.0407L11.3562 33.2994L14.9219 39.4378ZM13.9114 30.7354L7.42913 34.4551C6.64002 34.9079 5.71692 35.027 4.82977 34.7907C3.94263 34.5545 3.20307 33.9925 2.74749 33.2083C2.29192 32.4241 2.17188 31.5066 2.40976 30.6248C2.64744 29.7431 3.21292 29.008 4.00193 28.5552L10.4842 24.8355C10.9763 24.5531 11.3288 24.189 11.5938 23.6897L13.5787 19.9498C13.8111 19.5121 14.23 19.2556 14.7278 19.2462C15.2244 19.2376 15.6541 19.4772 15.903 19.9057L20.9163 28.5361C21.1654 28.9647 21.1607 29.4536 20.9035 29.8774C20.6463 30.3012 20.2174 30.5338 19.7157 30.5146L15.4646 30.3532C14.8978 30.3317 14.4033 30.4531 13.9114 30.7354ZM40.0351 22.4992C39.9551 22.5628 39.8978 22.6502 39.8716 22.7487C39.8453 22.8471 39.8516 22.9513 39.8894 23.0459L41.7892 27.7956L36.6597 28.572C36.5584 28.5873 36.4648 28.6345 36.3925 28.7067C36.3203 28.779 36.2733 28.8723 36.2585 28.973L35.5144 34.0305L30.6815 32.1537C30.5861 32.1167 30.4812 32.1111 30.3823 32.1377C30.2835 32.1644 30.1958 32.2219 30.1323 32.3017L26.9436 36.3119L23.7024 32.2848C23.6384 32.2053 23.5504 32.1484 23.4513 32.1223C23.3523 32.0963 23.2475 32.1025 23.1523 32.1401L18.3733 34.0283L17.9706 31.3997L19.6793 31.4646C20.5241 31.4969 21.2867 31.0869 21.7225 30.3685C22.1585 29.65 22.1668 28.7874 21.7446 28.0609L16.7313 19.4305C16.3093 18.7039 15.5558 18.2805 14.7095 18.2958C13.8655 18.3118 13.1266 18.7644 12.7328 19.5063L11.9585 20.9651L9.80457 19.2732L13.8563 16.0519C13.9363 15.9883 13.9936 15.9008 14.0198 15.8024C14.046 15.704 14.0398 15.5998 14.0019 15.5051L12.1022 10.7554L17.2316 9.9791C17.3329 9.96376 17.4265 9.91651 17.4987 9.84431C17.571 9.7721 17.6179 9.67876 17.6328 9.57802L18.3769 4.52045L23.2098 6.39733C23.3052 6.43437 23.4101 6.43999 23.509 6.41334C23.6078 6.38669 23.6955 6.32919 23.759 6.24931L26.9477 2.23917L30.189 6.26623C30.253 6.34572 30.341 6.40268 30.44 6.42873C30.5391 6.45478 30.6439 6.44854 30.7391 6.41092L35.518 4.52274L36.2991 9.62089C36.3145 9.72156 36.3621 9.81463 36.4347 9.88641C36.5074 9.95819 36.6013 10.0049 36.7027 10.0196L41.7912 10.7592L39.9029 15.5626C39.8656 15.6574 39.86 15.7617 39.8868 15.86C39.9136 15.9582 39.9715 16.0454 40.0519 16.1085L44.0867 19.2778L40.0351 22.4992ZM30.9607 13.6559L24.9172 24.9947C24.8878 25.0499 24.8478 25.0988 24.7994 25.1385C24.751 25.1783 24.6952 25.2082 24.6351 25.2266C24.5751 25.2449 24.512 25.2513 24.4495 25.2454C24.387 25.2395 24.3263 25.2215 24.2708 25.1922C24.2153 25.163 24.1661 25.1232 24.1261 25.0751C24.0861 25.027 24.056 24.9716 24.0375 24.9119C24.0191 24.8522 24.0126 24.7895 24.0186 24.7274C24.0245 24.6653 24.0427 24.6049 24.0721 24.5497L30.1155 13.2109C30.1758 13.1011 30.2771 13.0192 30.3977 12.9831C30.5182 12.9471 30.6482 12.9597 30.7594 13.0183C30.8707 13.0768 30.9542 13.1766 30.9919 13.296C31.0295 13.4154 31.0183 13.5447 30.9607 13.6559ZM25.0068 17.7775C25.5333 17.2146 25.8077 16.4816 25.7795 15.7135C25.7514 14.9454 25.4239 14.2343 24.8575 13.7111C24.2912 13.1877 23.5544 12.9149 22.7809 12.943C22.0081 12.971 21.2926 13.2965 20.7661 13.8594C20.2397 14.4223 19.9653 15.1553 19.9935 15.9233C20.0216 16.6915 20.3491 17.4026 20.9154 17.9258C21.4554 18.4247 22.1507 18.6958 22.8838 18.6958C22.9198 18.6958 22.9559 18.6952 22.992 18.6938C23.7647 18.6658 24.4803 18.3404 25.0068 17.7775ZM24.3062 17.1303C23.9536 17.5072 23.4745 17.7251 22.9571 17.7438C22.4396 17.7626 21.9459 17.5799 21.5666 17.2295C21.1874 16.8791 20.9682 16.4029 20.9492 15.8886C20.9304 15.3743 21.1142 14.8835 21.4667 14.5066C21.8191 14.1296 22.2983 13.9118 22.8157 13.893C22.8396 13.8921 22.8636 13.8917 22.8873 13.8917C23.9238 13.8917 24.7856 14.7103 24.8237 15.7481C24.8337 16.0011 24.7931 16.2535 24.7043 16.4907C24.6155 16.728 24.4802 16.9454 24.3062 17.1303ZM34.1175 20.28C33.5512 19.7567 32.815 19.4847 32.0408 19.512C30.4456 19.5698 29.1952 20.9067 29.2533 22.4922C29.3102 24.0422 30.5969 25.2647 32.1449 25.2647C32.1804 25.2647 32.216 25.2641 32.2518 25.2627C33.0245 25.2348 33.7401 24.9093 34.2665 24.3464C34.793 23.7835 35.0674 23.0505 35.0393 22.2824C35.0112 21.5144 34.6837 20.8033 34.1175 20.28ZM33.5661 23.6992C33.3932 23.885 33.185 24.035 32.9534 24.1403C32.7218 24.2456 32.4716 24.3042 32.2171 24.3127C31.1473 24.3523 30.2481 23.5192 30.2092 22.4575C30.1703 21.396 31.0076 20.5007 32.0758 20.4619C32.3303 20.4521 32.5842 20.4924 32.8229 20.5807C33.0616 20.669 33.2803 20.8034 33.4663 20.9762C33.8456 21.3267 34.0648 21.8028 34.0836 22.3171C34.1025 22.8314 33.9186 23.3223 33.5661 23.6992Z" fill="#FF7E21" stroke="#FF7E21"/>
</svg>
