<svg width="47" height="46" viewBox="0 0 47 46" fill="none" xmlns="http://www.w3.org/2000/svg">
<path d="M43.1932 13.741C43.1932 6.16418 37.3673 0 30.2063 0C27.708 0 25.2818 0.752351 23.1899 2.17575C21.8675 3.07553 20.7186 4.21574 19.7892 5.53563C18.3421 4.88382 16.8042 4.55328 15.2067 4.55328C11.1 4.55328 7.36183 6.76389 5.20728 10.4668C4.97459 10.8668 5.11007 11.3797 5.51006 11.6124C5.60514 11.6678 5.71021 11.7039 5.81927 11.7187C5.92832 11.7335 6.03922 11.7266 6.14562 11.6985C6.25202 11.6704 6.35183 11.6215 6.43934 11.5548C6.45591 11.5422 6.47198 11.529 6.48752 11.5152C6.55404 11.4561 6.61083 11.3868 6.65565 11.3096C8.50679 8.12834 11.7034 6.22914 15.2067 6.22914C16.49 6.22914 17.7288 6.47998 18.9002 6.97547C18.7566 7.24354 18.6217 7.51621 18.4958 7.79305C18.3044 8.21432 18.4907 8.71107 18.912 8.90253C19.3332 9.0938 19.8301 8.90756 20.0214 8.48637C20.2415 8.00223 20.4927 7.53286 20.7735 7.08121C20.7844 7.06522 20.7941 7.04824 20.8038 7.03135C21.6727 5.64794 22.8037 4.46532 24.1325 3.56123C25.9453 2.32785 28.0456 1.67586 30.2062 1.67586C36.4433 1.67586 41.5174 7.08831 41.5174 13.7411C41.5174 20.3938 36.4433 25.8063 30.2062 25.8063C23.9692 25.8063 18.8952 20.3938 18.8952 13.7411C18.8952 13.5188 18.8069 13.3057 18.6497 13.1486C18.4926 12.9915 18.2795 12.9032 18.0573 12.9032C17.8351 12.9032 17.6219 12.9915 17.4648 13.1486C17.3464 13.267 17.267 13.4173 17.2352 13.5793C17.2247 13.6322 17.2194 13.6863 17.2194 13.7411C17.2194 18.1625 19.2038 22.1021 22.2792 24.6173C20.4503 26.6098 17.969 27.6969 15.2068 27.6969C9.66102 27.6969 5.14915 22.8817 5.14915 16.963C5.14915 16.7408 5.06088 16.5277 4.90374 16.3706C4.74661 16.2134 4.53349 16.1252 4.31127 16.1252C4.08905 16.1252 3.87593 16.2134 3.7188 16.3706C3.56167 16.5277 3.47339 16.7408 3.47339 16.963C3.47339 23.8058 8.73697 29.3728 15.2069 29.3728C15.595 29.3728 15.978 29.3534 16.3559 29.3172C16.2494 29.7943 16.2684 30.2908 16.4109 30.7585C16.647 31.5388 17.1818 32.0565 17.9171 32.2163C18.0859 32.253 18.2636 32.2714 18.4531 32.2714C18.733 32.2714 19.0395 32.2306 19.3818 32.1491C19.7659 33.0427 19.9142 33.9115 19.8215 34.7387C19.7174 35.6697 19.2618 36.3112 18.7794 36.9902C18.2341 37.7579 17.6161 38.6281 17.5823 39.8927C17.5005 42.948 19.1215 45.001 19.8222 45.7417C20.1614 46.1004 20.7545 46.0825 21.0723 45.7051C21.3433 45.3836 21.3283 44.8953 21.0396 44.5902C20.6046 44.1304 19.1907 42.4356 19.2575 39.9374C19.2777 39.1827 19.6608 38.6434 20.1458 37.9605C20.7031 37.176 21.3347 36.2867 21.4871 34.925C21.6106 33.8201 21.4278 32.6842 20.9437 31.5386C21.1271 31.4229 21.2845 31.2963 21.4196 31.1567C21.943 30.6162 22.1013 29.8887 21.8652 29.1085C21.712 28.6004 21.419 28.1457 21.0196 27.7964C21.9874 27.2149 22.8713 26.4781 23.6503 25.5981C24.7194 26.2624 25.8857 26.7693 27.1208 27.0891C26.8131 27.5534 26.6493 28.0983 26.6499 28.6554C26.6499 29.2104 26.8138 29.6546 27.1369 29.9759C27.4461 30.2834 27.8347 30.4171 28.2535 30.4746C27.6859 31.859 27.5062 33.21 27.7228 34.5047C27.9597 35.9207 28.6055 36.8718 29.1753 37.711C29.7009 38.4852 30.1549 39.1539 30.2475 40.1079C30.3699 41.3677 29.8065 42.7648 28.573 44.2604C28.3016 44.5895 28.3257 45.0849 28.6273 45.3863C28.972 45.7308 29.556 45.7024 29.8658 45.3267C31.3927 43.4751 32.0823 41.6649 31.9154 39.9458C31.7814 38.5662 31.1613 37.653 30.5615 36.7697C30.0423 36.005 29.5518 35.2826 29.3754 34.228C29.1821 33.0718 29.4182 31.8251 30.0746 30.5161C30.7385 30.5094 31.3915 30.4429 31.8612 29.9758C32.1843 29.6545 32.3482 29.2102 32.3482 28.6553C32.3485 28.1994 32.2388 27.7502 32.0282 27.3459C38.3298 26.4057 43.1932 20.6635 43.1932 13.741ZM20.2158 29.9911C20.1111 30.0993 18.4199 30.6109 18.2729 30.5788C18.1898 30.5607 18.0956 30.5402 18.0149 30.2733C17.9267 29.9819 18.0181 29.1685 18.7362 28.8504C19.4859 28.5183 20.1741 29.3057 20.2612 29.5938C20.342 29.8607 20.2749 29.93 20.2158 29.9911ZM30.6629 28.7876C30.4943 28.8447 28.504 28.8446 28.3354 28.7876C28.3283 28.7439 28.3251 28.6997 28.3257 28.6554C28.3257 28.0083 28.8521 27.482 29.4991 27.482C30.146 27.482 30.6724 28.0084 30.6724 28.6554C30.6732 28.6997 30.67 28.7439 30.6629 28.7876Z" fill="#FF7E21"/>
<path d="M18.912 8.90253C18.4907 8.71107 18.3044 8.21432 18.4958 7.79305C17.8487 8.79285 17.3969 11.9669 17.2352 13.5793C17.267 13.4173 17.3464 13.267 17.4648 13.1486C17.6219 12.9915 17.8351 12.9032 18.0573 12.9032C18.2795 12.9032 18.4926 12.9915 18.6497 13.1486C18.8069 13.3057 18.8952 13.5188 18.8952 13.7411C18.8911 11.8338 19.6443 9.44324 20.0214 8.48637C19.8301 8.90756 19.3332 9.0938 18.912 8.90253Z" fill="#FF7E21"/>
<path d="M5.51006 11.6124C5.11007 11.3797 4.97459 10.8668 5.20728 10.4668C4.62932 11.4532 3.47339 14.1335 3.47339 16.963C3.47339 16.7408 3.56167 16.5277 3.7188 16.3706C3.87593 16.2134 4.08905 16.1252 4.31127 16.1252C4.53349 16.1252 4.74661 16.2134 4.90374 16.3706C5.06088 16.5277 5.14915 16.7408 5.14915 16.963C5.20441 15.5724 5.45223 12.9008 6.48752 11.5152C6.47198 11.529 6.45591 11.5422 6.43934 11.5548C6.35183 11.6215 6.25202 11.6704 6.14562 11.6985C6.03922 11.7266 5.92832 11.7335 5.81927 11.7187C5.71021 11.7039 5.60514 11.6678 5.51006 11.6124Z" fill="#FF7E21"/>
<path d="M27.034 10.0641V17.8825H26.1386V11.2977L24.3333 12.024V11.1322L26.8936 10.0641H27.034Z" fill="#FF7E21"/>
<path d="M32.9377 13.3752V14.5607C32.9377 15.198 32.8861 15.7356 32.7828 16.1736C32.6796 16.6115 32.5312 16.964 32.3376 17.231C32.144 17.498 31.91 17.692 31.6358 17.8131C31.3647 17.9306 31.0582 17.9893 30.7162 17.9893C30.4451 17.9893 30.195 17.9519 29.9659 17.8772C29.7369 17.8024 29.5303 17.6831 29.3464 17.5194C29.1657 17.352 29.0109 17.1348 28.8818 16.8678C28.7527 16.6008 28.6543 16.2768 28.5865 15.8959C28.5188 15.5149 28.4849 15.0699 28.4849 14.5607V13.3752C28.4849 12.7379 28.5365 12.2038 28.6398 11.773C28.7463 11.3422 28.8963 10.9969 29.0899 10.737C29.2835 10.4735 29.5158 10.2848 29.7869 10.1709C30.0611 10.057 30.3677 10 30.7065 10C30.9807 10 31.2324 10.0374 31.4615 10.1121C31.6938 10.1834 31.9003 10.2991 32.081 10.4593C32.2617 10.6159 32.415 10.826 32.5408 11.0895C32.6699 11.3494 32.7683 11.668 32.8361 12.0454C32.9038 12.4228 32.9377 12.866 32.9377 13.3752ZM32.0375 14.721V13.2096C32.0375 12.8607 32.0181 12.5545 31.9794 12.2911C31.9439 12.024 31.8907 11.7962 31.8197 11.6075C31.7487 11.4188 31.6583 11.2657 31.5486 11.1482C31.4422 11.0307 31.3179 10.9453 31.176 10.8919C31.0372 10.8349 30.8807 10.8064 30.7065 10.8064C30.4935 10.8064 30.3047 10.8509 30.1402 10.9399C29.9756 11.0254 29.8369 11.1624 29.7239 11.3511C29.6142 11.5398 29.5303 11.7873 29.4723 12.0935C29.4142 12.3996 29.3851 12.7717 29.3851 13.2096V14.721C29.3851 15.0699 29.4029 15.3778 29.4384 15.6449C29.4771 15.9119 29.5336 16.1433 29.6078 16.3391C29.682 16.5314 29.7723 16.6898 29.8788 16.8144C29.9853 16.939 30.1079 17.0316 30.2467 17.0921C30.3886 17.1491 30.5451 17.1776 30.7162 17.1776C30.9356 17.1776 31.1276 17.1313 31.2921 17.0387C31.4567 16.9462 31.5938 16.802 31.7035 16.6061C31.8164 16.4068 31.9003 16.1522 31.9552 15.8425C32.01 15.5292 32.0375 15.1553 32.0375 14.721Z" fill="#FF7E21"/>
<path d="M33.9377 14.2511V13.9941C33.9377 13.8094 33.9745 13.6414 34.048 13.49C34.1215 13.3387 34.2267 13.2175 34.3635 13.1262C34.5003 13.035 34.6626 12.9894 34.8505 12.9894C35.0424 12.9894 35.2057 13.035 35.3405 13.1262C35.4773 13.2175 35.5825 13.3387 35.656 13.49C35.7295 13.6414 35.7662 13.8094 35.7662 13.9941V14.2511C35.7662 14.4313 35.7295 14.5971 35.656 14.7484C35.5845 14.8997 35.4804 15.021 35.3436 15.1122C35.2088 15.2034 35.0465 15.2491 34.8566 15.2491C34.6667 15.2491 34.5023 15.2034 34.3635 15.1122C34.2267 15.021 34.1215 14.8997 34.048 14.7484C33.9745 14.5971 33.9377 14.4313 33.9377 14.2511ZM34.3635 13.9941V14.2511C34.3635 14.3534 34.3808 14.4502 34.4155 14.5414C34.4523 14.6327 34.5074 14.7072 34.5809 14.7651C34.6544 14.8207 34.7463 14.8485 34.8566 14.8485C34.9668 14.8485 35.0577 14.8207 35.1292 14.7651C35.2006 14.7072 35.2537 14.6327 35.2884 14.5414C35.3231 14.4502 35.3405 14.3534 35.3405 14.2511V13.9941C35.3405 13.8895 35.3221 13.7916 35.2854 13.7003C35.2507 13.6069 35.1965 13.5323 35.123 13.4767C35.0516 13.4188 34.9607 13.3899 34.8505 13.3899C34.7422 13.3899 34.6514 13.4188 34.5779 13.4767C34.5064 13.5323 34.4523 13.6069 34.4155 13.7003C34.3808 13.7916 34.3635 13.8895 34.3635 13.9941ZM36.1093 16.988V16.7277C36.1093 16.5452 36.146 16.3783 36.2195 16.227C36.293 16.0757 36.3982 15.9544 36.535 15.8632C36.6718 15.772 36.8341 15.7264 37.022 15.7264C37.2139 15.7264 37.3773 15.772 37.512 15.8632C37.6488 15.9544 37.754 16.0757 37.8275 16.227C37.901 16.3783 37.9377 16.5452 37.9377 16.7277V16.988C37.9377 17.1705 37.901 17.3374 37.8275 17.4887C37.756 17.64 37.6519 17.7613 37.5151 17.8525C37.3803 17.9438 37.218 17.9894 37.0281 17.9894C36.8382 17.9894 36.6749 17.9438 36.5381 17.8525C36.4012 17.7613 36.2951 17.64 36.2195 17.4887C36.146 17.3374 36.1093 17.1705 36.1093 16.988ZM36.535 16.7277V16.988C36.535 17.0904 36.5523 17.1883 36.5871 17.2818C36.6238 17.373 36.6789 17.4475 36.7524 17.5054C36.826 17.561 36.9178 17.5888 37.0281 17.5888C37.1384 17.5888 37.2292 17.561 37.3007 17.5054C37.3742 17.4475 37.4283 17.373 37.463 17.2818C37.4977 17.1905 37.5151 17.0926 37.5151 16.988V16.7277C37.5151 16.6231 37.4967 16.5252 37.4599 16.434C37.4252 16.3427 37.3711 16.2693 37.2976 16.2137C37.2262 16.1558 37.1343 16.1269 37.022 16.1269C36.9138 16.1269 36.8229 16.1558 36.7494 16.2137C36.6779 16.2693 36.6238 16.3427 36.5871 16.434C36.5523 16.5252 36.535 16.6231 36.535 16.7277ZM37.1629 13.7504L34.9852 17.5488L34.6667 17.3285L36.8443 13.5301L37.1629 13.7504Z" fill="#FF7E21"/>
</svg>
