<svg width="42" height="42" viewBox="0 0 42 42" fill="none" xmlns="http://www.w3.org/2000/svg">
<path d="M18.561 20.9999H16.122M18.561 20.9999L18.561 13.6829H24.6585C29.5024 13.6829 29.4959 21 24.6585 21L18.561 20.9999ZM18.561 20.9999L18.561 30.7561M16.122 25.878H25.8781M32.335 37.4851C29.1145 39.7024 25.2102 41 21 41M21 41C9.94634 41 1 32.0554 1 21C1 9.94634 9.94472 1 21 1C32.0537 1 41 9.94472 41 21M21 41C32.0537 41 41 32.0554 41 21M41 21C41 25.21 39.7025 29.1142 37.4851 32.335M21 36.1219C12.6618 36.1219 5.87805 29.3382 5.87805 21C5.87805 12.6618 12.6618 5.87805 21 5.87805C29.3382 5.87805 36.122 12.6618 36.122 21C36.122 29.3382 29.3382 36.1219 21 36.1219Z" stroke="#FF7E21" stroke-width="2" stroke-miterlimit="10" stroke-linecap="round" stroke-linejoin="round"/>
</svg>
