<svg width="41" height="42" viewBox="0 0 41 42" fill="none" xmlns="http://www.w3.org/2000/svg">
<path d="M11.0255 25.0285H34.9486L39.6681 11.3582H6.79419" stroke="#FF7E21" stroke-width="2" stroke-miterlimit="10" stroke-linecap="round" stroke-linejoin="round"/>
<path d="M1.66479 7.04541H5.16595L10.9433 25.1098" stroke="#FF7E21" stroke-width="2" stroke-miterlimit="10" stroke-linecap="round" stroke-linejoin="round"/>
<path d="M15.0935 40.2441C17.3855 40.2441 19.2435 38.3861 19.2435 36.0941C19.2435 33.8022 17.3855 31.9442 15.0935 31.9442C12.8016 31.9442 10.9436 33.8022 10.9436 36.0941C10.9436 38.3861 12.8016 40.2441 15.0935 40.2441Z" stroke="#FF7E21" stroke-width="2" stroke-miterlimit="10" stroke-linecap="round" stroke-linejoin="round"/>
<path d="M30.7984 40.2441C33.0903 40.2441 34.9483 38.3861 34.9483 36.0941C34.9483 33.8022 33.0903 31.9442 30.7984 31.9442C28.5064 31.9442 26.6484 33.8022 26.6484 36.0941C26.6484 38.3861 28.5064 40.2441 30.7984 40.2441Z" stroke="#FF7E21" stroke-width="2" stroke-miterlimit="10" stroke-linecap="round" stroke-linejoin="round"/>
<path d="M27.6258 12.1715V17.2979C27.6258 19.5762 25.7542 21.4478 23.4759 21.4478C21.1975 21.4478 19.3259 19.5762 19.3259 17.2979V1.75598" stroke="#FF7E21" stroke-width="2" stroke-miterlimit="10" stroke-linejoin="round"/>
<path d="M11.7563 25.0283C9.88475 25.0283 8.25732 26.5744 8.25732 28.5273C8.25732 30.3988 9.80338 32.0262 11.7563 32.0262H30.6344" stroke="#FF7E21" stroke-width="2" stroke-miterlimit="10" stroke-linecap="round" stroke-linejoin="round"/>
<path d="M14.8499 6.23139L19.3253 1.75598L23.8007 6.23139" stroke="#FF7E21" stroke-width="2" stroke-miterlimit="10" stroke-linecap="round" stroke-linejoin="round"/>
</svg>
