<svg width="34" height="36" viewBox="0 0 34 36" fill="none" xmlns="http://www.w3.org/2000/svg">
<path d="M32.9999 26.5899V29.2495C32.9999 30.184 30.0082 30.9745 26.2869 30.9745C22.5656 30.9745 19.574 30.1838 19.574 29.2494M19.5012 26.5897V29.2493M19.5012 30.6152V33.2748C19.5012 34.2093 22.4929 35 26.2141 35C29.9354 35 32.927 34.2093 32.927 33.2748V30.6152M19.5012 25.1521V21.558C19.5012 21.558 19.5012 21.3424 19.5012 21.2705C19.5012 20.336 22.5658 19.6172 26.2871 19.6172C30.0084 19.6172 33 20.4079 33 21.3424C33 21.4143 33 21.6299 33 21.6299V25.224C33 26.1584 30.0082 26.949 26.2869 26.949C22.5656 26.949 19.574 26.1583 19.574 25.2239M24.2441 19.4016C23.4415 16.8857 22.1281 14.5855 20.4498 12.8604C19.5743 11.9259 17.3853 9.76947 16.1448 9.76947H10.0886C8.8482 9.76947 6.65922 11.9978 5.78362 12.8604C2.20827 16.6701 0.530046 23.2113 1.11378 28.3868C1.55157 31.7652 4.83506 34.928 8.26447 34.928H18.042C18.6987 34.928 19.2824 34.8561 19.9391 34.6405M32.9998 21.1267C32.9998 22.0612 30.0082 22.8519 26.2869 22.8519C22.5656 22.8519 19.574 22.0612 19.574 21.1267M5.41891 1.57505C6.36748 1.21564 6.65934 1 8.33757 1C13.5911 1 13.7371 3.44397 19.9392 3.44397L16.5828 8.47568C16.145 9.26638 15.2694 9.76955 14.3938 9.76955H12.0589C11.1103 9.76955 10.3077 9.26638 9.86986 8.54756L5.41891 1.57505Z" stroke="#FF7E21" stroke-width="2" stroke-miterlimit="10" stroke-linecap="round" stroke-linejoin="round"/>
</svg>
