<svg width="35" height="32" viewBox="0 0 35 32" fill="none" xmlns="http://www.w3.org/2000/svg">
<path d="M1.33179 7.98349V4.09875C1.33179 3.25118 1.68494 2.47423 2.25 1.83855C2.81505 1.27349 3.592 0.990967 4.43957 0.990967H24.9227C25.3465 0.990967 25.629 1.34412 25.629 1.69728V7.98349" stroke="#FF7E21" stroke-width="2" stroke-miterlimit="10"/>
<path d="M32.0575 23.2392H25.3475C23.3698 23.2392 21.8159 21.6147 21.8159 19.7076C21.8159 17.7299 23.4404 16.176 25.3475 16.176H32.0575C32.7638 16.176 33.3289 16.7411 33.3289 17.4474V21.9678C33.3995 22.6741 32.7638 23.2392 32.0575 23.2392Z" stroke="#FF7E21" stroke-width="2" stroke-miterlimit="10"/>
<path d="M32.0565 23.2396V30.3027C32.0565 30.7265 31.7034 31.009 31.3502 31.009H4.51021C2.74442 31.009 1.33179 29.5964 1.33179 27.8306V7.98315" stroke="#FF7E21" stroke-width="2" stroke-miterlimit="10"/>
<path d="M1.33179 4.80566C1.33179 5.65324 1.68494 6.43019 2.25 7.06587C2.81505 7.63093 3.592 7.98408 4.51021 7.98408H7.05294H31.3502C31.774 7.98408 32.0565 8.33724 32.0565 8.6904V16.1067" stroke="#FF7E21" stroke-width="2" stroke-miterlimit="10"/>
<path d="M25.6992 20.8388C26.3233 20.8388 26.8293 20.3329 26.8293 19.7087C26.8293 19.0846 26.3233 18.5786 25.6992 18.5786C25.0751 18.5786 24.5691 19.0846 24.5691 19.7087C24.5691 20.3329 25.0751 20.8388 25.6992 20.8388Z" stroke="#FF7E21" stroke-width="2" stroke-miterlimit="10"/>
</svg>
