<svg width="25" height="25" fill="none" xmlns="http://www.w3.org/2000/svg"><g clip-path="url(#clip0)" fill="#F1B145"><path d="M24.666 5.463l-8.645 6.586 8.663 7.453c.201-.38.316-.813.316-1.273V6.77c0-.473-.121-.918-.334-1.307zm-2.398-1.424H2.732c-.538 0-1.04.156-1.462.426l10.78 8.08a.76.76 0 00.903 0l10.683-8.138a2.714 2.714 0 00-1.368-.368zm-7.438 8.918l-1.004.765a2.225 2.225 0 01-2.648 0l-.004-.003-1.003-.752-8.84 7.607c.41.246.889.387 1.4.387h19.537c.515 0 .997-.143 1.41-.392l-8.848-7.612zM.285 5.558A2.714 2.714 0 000 6.77v11.46c0 .462.116.898.32 1.28l8.65-7.443-8.685-6.51z"/></g><defs><clipPath id="clip0"><path fill="#fff" d="M0 0h25v25H0z"/></clipPath></defs></svg>