<svg width="55" height="55" fill="none" xmlns="http://www.w3.org/2000/svg"><path fill-rule="evenodd" clip-rule="evenodd" d="M27.5 55C42.688 55 55 42.688 55 27.5S42.688 0 27.5 0 0 12.312 0 27.5 12.312 55 27.5 55zm9.68-24.942c-.222-.21-.445-.422-.664-.636-.748-.73-.796-1.152-.194-1.992.35-.49.712-.969 1.075-1.448a68.963 68.963 0 001.018-1.366c.595-.824 1.192-1.65 1.505-2.634.206-.652.023-.939-.645-1.053a2.085 2.085 0 00-.35-.02l-3.961-.005c-.488-.009-.759.204-.93.638a23.285 23.285 0 01-.752 1.731c-.628 1.28-1.331 2.516-2.317 3.562l-.043.045c-.207.222-.439.47-.779.358-.455-.167-.588-.916-.58-1.168l-.004-4.573c-.089-.652-.233-.943-.88-1.07h-4.117c-.549 0-.824.213-1.117.555-.169.199-.22.329.128.395.682.129 1.067.572 1.168 1.255.166 1.095.153 2.193.059 3.292-.029.32-.084.641-.21.94-.198.47-.52.566-.942.276-.382-.26-.65-.632-.913-1.003-.988-1.394-1.774-2.898-2.417-4.478-.186-.456-.506-.733-.989-.74a99.027 99.027 0 00-3.566.001c-.715.012-.928.36-.637 1.01 1.295 2.877 2.735 5.677 4.615 8.225.966 1.309 2.076 2.465 3.507 3.283 1.623.93 3.37 1.208 5.211 1.121.862-.04 1.121-.265 1.16-1.122.029-.588.094-1.172.384-1.7.284-.518.715-.617 1.212-.294.249.161.457.365.656.582.157.172.311.346.466.519.325.363.649.725.99 1.073.63.642 1.38 1.02 2.319.942l3.642.002c.586-.04.891-.758.554-1.412-.238-.46-.55-.868-.878-1.264-.547-.656-1.165-1.241-1.783-1.827z" fill="#F1B145"/></svg>