<svg width="55" height="55" fill="none" xmlns="http://www.w3.org/2000/svg"><path fill-rule="evenodd" clip-rule="evenodd" d="M27.5 55C42.688 55 55 42.688 55 27.5S42.688 0 27.5 0 0 12.312 0 27.5 12.312 55 27.5 55zm-4.086-37h9.172A5.42 5.42 0 0138 23.414v9.172A5.42 5.42 0 0132.586 38h-9.172A5.42 5.42 0 0118 32.586v-9.172A5.42 5.42 0 0123.414 18zm-.883 10A5.475 5.475 0 0028 33.469 5.475 5.475 0 0033.469 28 5.475 5.475 0 0028 22.531 5.475 5.475 0 0022.531 28zm9.452-5.795c0 .891.725 1.616 1.616 1.616.891 0 1.616-.725 1.616-1.616 0-.89-.725-1.616-1.616-1.616-.89 0-1.616.725-1.616 1.616zM28 23.704A4.301 4.301 0 0023.704 28 4.301 4.301 0 0028 32.296 4.301 4.301 0 0032.296 28 4.3 4.3 0 0028 23.704zm5.156-1.499a.444.444 0 11.888.001.444.444 0 01-.888 0z" fill="#F1B145"/></svg>