<svg width="285" height="34" fill="none" xmlns="http://www.w3.org/2000/svg"><path d="M263.814 7.592l-6.099 5.248a13.55 13.55 0 01-8.8 3.242c-3.229 0-6.351-1.15-8.801-3.242l-6.091-5.248a31.776 31.776 0 00-20.62-7.59 31.777 31.777 0 00-20.621 7.59l-6.091 5.248a13.555 13.555 0 01-8.801 3.242 13.55 13.55 0 01-8.8-3.242l-6.099-5.248a31.76 31.76 0 00-20.617-7.59 31.765 31.765 0 00-20.617 7.59l-6.098 5.248a13.555 13.555 0 01-8.801 3.242 13.55 13.55 0 01-8.8-3.242l-6.091-5.248a31.777 31.777 0 00-20.62-7.59 31.777 31.777 0 00-20.621 7.59l-6.092 5.248a13.552 13.552 0 01-8.8 3.242c-3.23 0-6.351-1.15-8.8-3.242l-6.1-5.248A31.504 31.504 0 000 0v17.934a13.435 13.435 0 019.115 3.211l6.098 5.248a31.777 31.777 0 0020.62 7.59c7.566 0 14.88-2.692 20.622-7.59l6.09-5.248a13.551 13.551 0 018.801-3.242c3.23 0 6.351 1.15 8.8 3.242l6.1 5.248a31.762 31.762 0 0020.616 7.591 31.76 31.76 0 0020.617-7.59l6.099-5.249a13.55 13.55 0 018.8-3.242 13.55 13.55 0 018.8 3.242l6.092 5.248a31.776 31.776 0 0020.62 7.59c7.565 0 14.88-2.692 20.621-7.59l6.091-5.248a13.552 13.552 0 018.801-3.242 13.55 13.55 0 018.8 3.242l6.099 5.248a31.76 31.76 0 0020.617 7.591 31.76 31.76 0 0020.616-7.59l6.099-5.249a13.423 13.423 0 019.366-3.19V0a31.548 31.548 0 00-21.186 7.592z" fill="#252628"/></svg>