<svg width="180" height="180" fill="none" xmlns="http://www.w3.org/2000/svg"><g clip-path="url(#clip0)" fill="#252628"><path d="M89.996 0A90.005 90.005 0 10180 89.996 90.1 90.1 0 0089.996 0zm0 165.271a75.277 75.277 0 01-73.829-89.96A75.275 75.275 0 01165.27 89.995a75.357 75.357 0 01-75.274 75.275z"/><path d="M89.996 24.201a65.803 65.803 0 1065.803 65.795A65.871 65.871 0 0089.996 24.2zm0 116.86a51.066 51.066 0 1151.065-51.065 51.127 51.127 0 01-51.065 51.065z"/><path d="M89.996 51.023a39.007 39.007 0 100 78.013 39.007 39.007 0 000-78.013zm0 63.225a24.252 24.252 0 1124.243-24.252 24.274 24.274 0 01-24.243 24.252z"/><path d="M89.996 102.419c6.86 0 12.423-5.562 12.423-12.423 0-6.86-5.562-12.423-12.423-12.423s-12.423 5.562-12.423 12.423 5.562 12.423 12.423 12.423z"/></g><defs><clipPath id="clip0"><path fill="#fff" d="M0 0h180v180H0z"/></clipPath></defs></svg>