<svg width="20" height="20" fill="none" xmlns="http://www.w3.org/2000/svg"><g clip-path="url(#clip0)" fill="#F2F6F7"><path d="M19.733 4.37l-6.916 5.27 6.93 5.962c.161-.305.253-.651.253-1.019V5.416a2.17 2.17 0 00-.267-1.045zm-1.919-1.139H2.186c-.43 0-.832.125-1.17.34l8.624 6.465a.609.609 0 00.722 0l8.547-6.51a2.17 2.17 0 00-1.095-.295zm-5.95 7.135l-.803.612a1.78 1.78 0 01-2.119 0l-.003-.003-.802-.601-7.073 6.085c.328.197.712.31 1.121.31h15.63c.412 0 .797-.115 1.127-.314l-7.078-6.09zM.228 4.446a2.171 2.171 0 00-.228.97v9.168c0 .37.093.719.256 1.024l6.92-5.954L.229 4.446z"/></g><defs><clipPath id="clip0"><path fill="#fff" d="M0 0h20v20H0z"/></clipPath></defs></svg>