<svg width="390" height="50" fill="none" xmlns="http://www.w3.org/2000/svg"><g clip-path="url(#clip0)"><path d="M361.008 11.168l-8.345 7.717c-3.352 3.077-7.624 4.768-12.043 4.768-4.418 0-8.691-1.691-12.042-4.768l-8.336-7.717C312.386 3.966 302.376.007 292.025.007c-10.352 0-20.362 3.959-28.218 11.161l-8.335 7.717c-3.352 3.077-7.625 4.768-12.043 4.768-4.419 0-8.691-1.691-12.043-4.768l-8.345-7.717C215.187 3.965 205.178.005 194.828.005c-10.35 0-20.359 3.96-28.213 11.163l-8.345 7.717c-3.352 3.077-7.624 4.768-12.043 4.768-4.418 0-8.691-1.691-12.042-4.768l-8.336-7.717C117.993 3.966 107.983.007 97.631.007c-10.351 0-20.36 3.959-28.217 11.161l-8.336 7.717c-3.351 3.077-7.624 4.768-12.042 4.768-4.419 0-8.691-1.691-12.043-4.768l-8.345-7.717C20.698 3.828 10.506-.144 0 .003v26.373c4.563-.141 9.011 1.543 12.473 4.723l8.345 7.717c7.856 7.202 17.866 11.161 28.218 11.161 10.351 0 20.361-3.959 28.218-11.16l8.335-7.718c3.352-3.076 7.624-4.768 12.043-4.768 4.418 0 8.69 1.692 12.042 4.768l8.346 7.717c7.854 7.203 17.862 11.164 28.212 11.164 10.351 0 20.359-3.96 28.213-11.164l8.345-7.717c3.352-3.076 7.624-4.768 12.043-4.768s8.691 1.692 12.043 4.768l8.335 7.717c7.857 7.202 17.866 11.161 28.218 11.161 10.351 0 20.361-3.959 28.218-11.16l8.335-7.718c3.352-3.076 7.624-4.768 12.043-4.768 4.418 0 8.691 1.692 12.042 4.768l8.346 7.717c7.854 7.203 17.862 11.164 28.212 11.164 10.351 0 20.359-3.96 28.213-11.164l8.345-7.717c3.554-3.258 8.14-4.937 12.817-4.691V.003c-10.623-.231-20.95 3.746-28.992 11.165z" fill="#252628"/></g><defs><clipPath id="clip0"><path fill="#fff" d="M0 0h390v50H0z"/></clipPath></defs></svg>