<svg width="40" height="40" fill="none" xmlns="http://www.w3.org/2000/svg"><path d="M26.597 19.218l-8.306-6.038a1.002 1.002 0 00-1.59.808V26.06a.998.998 0 001.59.806l8.306-6.032a.994.994 0 000-1.616z" fill="#fff"/><path d="M20 .002c-11.047 0-20 8.953-20 20 0 11.045 8.953 19.995 20 19.995 11.046 0 20-8.952 20-19.994C40.001 8.955 31.046.002 20 .002zm0 36.658c-9.2 0-16.659-7.456-16.659-16.657 0-9.198 7.46-16.663 16.66-16.663 9.199 0 16.657 7.464 16.657 16.663C36.659 29.204 29.2 36.66 20 36.66z" fill="#fff"/></svg>